<svg width="268" height="63" viewBox="0 0 268 63" fill="none" xmlns="http://www.w3.org/2000/svg">
<ellipse cx="20" cy="28" rx="19.5" ry="17" fill="white"/>
<path d="M37.144 36L38.4791 33.6246L39.2644 30.7742L39.5 27.5279L39.2644 25.0733L37.7723 20.6393L35.966 17.3138L33.9241 15.3343L31.411 13.2757L29.212 11.6921L26.3063 9.79179L24.5 9" stroke="white"/>
<g filter="url(#filter0_f_638_2090)">
<path d="M37.144 36L38.4791 33.7126L39.2644 30.9677L39.5 27.8416L39.2644 25.478L37.7723 21.2082L35.966 18.0059L33.9241 16.0997L31.411 14.1173L29.212 12.5924L26.3063 10.7625L24.5 10" stroke="white" stroke-width="0.6"/>
</g>
<g clip-path="url(#clip0_638_2090)">
<path d="M21.8462 10L2.5 15.4259V44.5741L21.8462 50V10Z" fill="#242424"/>
<path d="M21.8462 49.9996L2.5 44.5737V42.0977L21.8462 46.6711V49.9996Z" fill="#F3ECE6"/>
<path d="M21.8462 14.7759L2.5 18.7896V18.4946L21.8462 14.3555V14.7759Z" fill="#F8A543"/>
<path d="M21.8462 19.6118L2.5 22.1994V21.9021L21.8462 19.1914V19.6118Z" fill="#F8A543"/>
<path d="M21.8462 15.1865L2.5 19.0794V21.653L21.8462 18.8356V15.1865Z" fill="#F8A543"/>
<path d="M2.5 23.3863L3.5601 23.2725V24.9866L2.5 25.0633V23.3863Z" fill="#F8A543"/>
<path d="M5.42065 23.0725L9.34422 22.6475V24.573L5.42065 24.8541V23.0725Z" fill="#F8A543"/>
<path d="M11.7002 22.3945L16.7434 21.8486V24.0436L11.7002 24.4037V22.3945Z" fill="#F8A543"/>
<path d="M21.8439 21.2979V23.6763L19.8237 23.8227V21.5162L21.8439 21.2979Z" fill="#F8A543"/>
<path d="M5.22541 23.9804L4.47262 25.2927L3.74365 24.1128L4.47262 22.8027L5.22541 23.9804Z" fill="#F8A543"/>
<path d="M11.45 23.4211L10.4971 24.9077L9.5752 23.5907L10.4971 22.1064L11.45 23.4211Z" fill="#F8A543"/>
<path d="M19.4948 22.6988L18.2441 24.413L17.0435 22.9195L18.2441 21.21L19.4948 22.6988Z" fill="#F8A543"/>
<path d="M21.8462 10L37.4999 15.4259V44.5741L21.8462 50V10Z" fill="#242424"/>
<path d="M21.8462 14.7759L37.4999 18.7896V18.4946L21.8462 14.3555V14.7759Z" fill="#F8A543"/>
<path d="M21.8462 19.6118L37.4999 22.1994V21.9021L21.8462 19.1914V19.6118Z" fill="#F8A543"/>
<path d="M21.8462 15.1865L37.4999 19.0794V21.653L21.8462 18.8356V15.1865Z" fill="#F8A543"/>
<path d="M37.4999 23.3863L36.6423 23.2725V24.9866L37.4999 25.0633V23.3863Z" fill="#F8A543"/>
<path d="M35.1343 23.0725L31.9612 22.6475V24.573L35.1343 24.8541V23.0725Z" fill="#F8A543"/>
<path d="M30.053 22.3945L25.9746 21.8486V24.0436L30.053 24.4037V22.3945Z" fill="#F8A543"/>
<path d="M21.8462 21.2979V23.6763L23.4804 23.8227V21.5162L21.8462 21.2979Z" fill="#F8A543"/>
<path d="M35.2939 23.9804L35.9038 25.2927L36.4922 24.1128L35.9038 22.8027L35.2939 23.9804Z" fill="#F8A543"/>
<path d="M30.2556 23.4211L31.0275 24.9077L31.7731 23.5907L31.0275 22.1064L30.2556 23.4211Z" fill="#F8A543"/>
<path d="M23.7473 22.6988L24.7574 24.413L25.7293 22.9195L24.7574 21.21L23.7473 22.6988Z" fill="#F8A543"/>
<path d="M21.8462 49.9996L37.4999 44.5737V42.0977L21.8462 46.6711V49.9996Z" fill="#F3ECE6"/>
<g style="mix-blend-mode:screen" opacity="0.36">
<path d="M21.8462 10L37.4999 15.4259V44.5741L21.8462 50V10Z" fill="#242424"/>
</g>
</g>
<path d="M22.2752 7.15456L22.6208 5.95625L23.7685 4.36347L24.8266 3.27782L23.9574 3.17288L20.2154 6.02865C19.5812 5.68125 19.0246 5.378 18.6877 5.19441C17.41 4.49624 16.9229 4.87839 16.9229 4.87839C16.9229 4.87839 16.8643 5.49335 18.1465 6.19321C18.4835 6.3768 19.0369 6.6815 19.6743 7.02745L19.2865 11.7186L19.8429 12.3922L20.1891 10.915L20.9082 9.08943L21.7295 8.15167C22.9157 8.80063 23.9128 9.34634 23.9128 9.34634C23.9128 9.34634 24.0488 9.40927 24.2436 9.47551L24.5397 11.1361L25.1809 11.6139L25.3526 9.59534C25.3932 9.58415 25.4309 9.56668 25.4655 9.55067C25.4621 9.51028 25.4555 9.47135 25.4443 9.43073L27.0523 8.19721L26.303 7.91456L24.7435 8.56071C24.58 8.43033 24.4554 8.35068 24.4554 8.35068C24.4554 8.35068 23.4582 7.80498 22.2721 7.15601L22.2752 7.15456Z" fill="white"/>
<path d="M24.8947 9.42152L25.6746 9.77016L25.7598 9.6162L25.0586 9.12425L24.9275 9.36051L24.8947 9.42152Z" fill="white"/>
<path d="M56.32 9.52L60.6 21.6L63.62 11.26C63.76 10.82 63.82 10.44 63.82 10.1C63.82 9.6 63.68 9.18 63.46 8.82H65.02L60.98 23H59.92C59.52 23 59.18 22.74 59.04 22.38L55.42 12.16L51.64 23H50.5C50.1 23 49.76 22.76 49.66 22.38L45.76 8.82H48.56C48.36 9.14 48.26 9.5 48.26 9.94C48.26 10.38 48.36 10.92 48.54 11.56L51.34 21.6L55 11.22L54.12 8.82H55.34C55.78 8.82 56.18 9.1 56.32 9.52ZM76.4045 22.78L74.1445 18.02H68.2645L65.9645 23H64.6845L65.0645 22.72C65.1845 22.64 65.2845 22.48 65.3445 22.36L70.7645 10.58L70.0645 9.38C69.9645 9.2 69.8045 8.98 69.6445 8.84L69.6245 8.82H71.2645C71.5445 8.82 71.8445 9 71.9645 9.26L78.4245 22.36C78.4845 22.48 78.6045 22.64 78.7045 22.72L79.0445 23H76.7445C76.6045 23 76.4645 22.9 76.4045 22.78ZM68.6045 17.3H73.8045L71.1645 11.74L68.6045 17.3ZM87.0381 23H81.5781C81.7581 22.74 81.8781 22.4 81.8781 22.04V9.78C81.8781 9.4 81.7581 9.1 81.5781 8.82H85.5781C88.2581 8.82 90.1781 10.22 90.1781 12.46C90.1781 13.88 88.8181 15.44 87.5781 15.66C90.0581 15.88 91.4181 17.44 91.4181 19.18C91.4181 21.18 89.6381 23 87.0381 23ZM83.8781 9.56V15.38H86.0581C87.4581 15.38 88.1781 13.88 88.1781 12.56C88.1781 10.42 87.1581 9.56 85.4581 9.56H83.8781ZM83.8781 16.12V22.26H86.6181C88.2581 22.26 89.4181 20.8 89.4181 19.1C89.4181 17.62 88.5181 16.12 86.7581 16.12H83.8781ZM97.1894 23H94.6094C94.7894 22.74 94.9094 22.4 94.9094 22.04V9.78C94.9094 9.4 94.7894 9.1 94.6094 8.82H97.1894C97.0294 9.08 96.9094 9.38 96.9094 9.72V22.08C96.9094 22.44 97.0294 22.74 97.1894 23ZM109.575 21.6L110.275 23H101.195C101.375 22.74 101.495 22.44 101.495 22.04V9.78C101.495 9.36 101.375 9.1 101.195 8.82H103.775C103.595 9.1 103.455 9.38 103.455 9.82V22.26H105.435C106.835 22.26 107.855 22.22 109.575 21.6ZM121.864 21.6L122.564 23H113.484C113.664 22.74 113.784 22.44 113.784 22.04V9.78C113.784 9.36 113.664 9.1 113.484 8.82H116.064C115.884 9.1 115.744 9.38 115.744 9.82V22.26H117.724C119.124 22.26 120.144 22.22 121.864 21.6ZM136.033 22.78L133.773 18.02H127.893L125.593 23H124.313L124.693 22.72C124.813 22.64 124.913 22.48 124.973 22.36L130.393 10.58L129.693 9.38C129.593 9.2 129.433 8.98 129.273 8.84L129.253 8.82H130.893C131.173 8.82 131.473 9 131.593 9.26L138.053 22.36C138.113 22.48 138.233 22.64 138.333 22.72L138.673 23H136.373C136.233 23 136.093 22.9 136.033 22.78ZM128.233 17.3H133.433L130.793 11.74L128.233 17.3ZM143.787 23H141.207C141.387 22.74 141.507 22.4 141.507 22.04V9.78C141.507 9.4 141.387 9.1 141.207 8.82H143.787C143.627 9.08 143.507 9.38 143.507 9.72V15.14H150.667V9.78C150.667 9.4 150.547 9.1 150.367 8.82H152.947C152.787 9.08 152.667 9.38 152.667 9.72V22.08C152.667 22.44 152.787 22.74 152.947 23H150.367C150.547 22.74 150.667 22.4 150.667 22.04V15.88H143.507V22.08C143.507 22.44 143.627 22.74 143.787 23ZM159.533 23H156.953C157.133 22.74 157.253 22.4 157.253 22.04V9.78C157.253 9.4 157.133 9.1 156.953 8.82H159.533C159.373 9.08 159.253 9.38 159.253 9.72V22.08C159.253 22.44 159.373 22.74 159.533 23ZM179.679 8.82L178.879 10.16C177.139 9.68 176.259 9.56 174.939 9.56V22.04C174.939 22.42 175.059 22.72 175.239 23H172.659C172.839 22.72 172.979 22.4 172.979 22V9.56C171.659 9.56 170.779 9.68 169.039 10.16L168.239 8.82H179.679ZM190.682 22.78L188.422 18.02H182.542L180.242 23H178.962L179.342 22.72C179.462 22.64 179.562 22.48 179.622 22.36L185.042 10.58L184.342 9.38C184.242 9.2 184.082 8.98 183.922 8.84L183.902 8.82H185.542C185.822 8.82 186.122 9 186.242 9.26L192.702 22.36C192.762 22.48 192.882 22.64 192.982 22.72L193.322 23H191.022C190.882 23 190.742 22.9 190.682 22.78ZM182.882 17.3H188.082L185.442 11.74L182.882 17.3ZM195.255 15.9C195.255 11.16 198.815 8.52 202.375 8.52C205.935 8.52 209.495 11.16 209.495 15.9C209.495 20.64 205.935 23.3 202.375 23.3C198.815 23.3 195.255 20.64 195.255 15.9ZM197.495 15.72C197.495 19.04 198.695 22.62 202.295 22.62C204.955 22.62 207.335 20.66 207.335 16.08C207.335 12.7 206.055 9.14 202.495 9.14C199.795 9.14 197.495 11.14 197.495 15.72ZM215.471 23H212.891C213.071 22.74 213.191 22.4 213.191 22.04V9.78C213.191 9.4 213.071 9.1 212.891 8.82H221.591L220.711 10.18C218.391 9.7 216.891 9.56 215.151 9.56V15.2H219.891L219.251 16.46C217.451 15.94 217.011 15.94 215.151 15.94V22C215.151 22.4 215.291 22.72 215.471 23ZM232.609 21.64L233.489 23H224.789C224.989 22.72 225.089 22.38 225.089 22.04V9.78C225.089 9.4 224.969 9.1 224.789 8.82H232.489L231.609 10.18C229.389 9.56 228.429 9.56 227.049 9.56V14.48H231.189L230.549 15.74C228.749 15.22 228.429 15.22 227.049 15.22V21.9C227.049 22.02 227.069 22.14 227.089 22.26C228.809 22.26 230.409 22.26 232.609 21.64ZM244.918 21.64L245.798 23H237.098C237.298 22.72 237.398 22.38 237.398 22.04V9.78C237.398 9.4 237.278 9.1 237.098 8.82H244.798L243.918 10.18C241.698 9.56 240.738 9.56 239.358 9.56V14.48H243.498L242.858 15.74C241.058 15.22 240.738 15.22 239.358 15.22V21.9C239.358 22.02 239.378 22.14 239.398 22.26C241.118 22.26 242.718 22.26 244.918 21.64ZM251.986 23H249.406C249.586 22.74 249.706 22.4 249.706 22.04V9.78C249.706 9.4 249.586 9.1 249.406 8.82H251.986C251.806 9.1 251.666 9.42 251.666 9.82V15.7L252.726 14.74C254.706 12.96 256.046 11.76 257.786 8.82H260.286L254.166 14.42L260.866 23H259.126C258.646 23 258.146 22.74 257.846 22.36L252.766 15.7L251.666 16.72V22C251.666 22.4 251.806 22.72 251.986 23Z" fill="#F8A645"/>
<path d="M48.2846 46H46.5238C46.6466 45.8226 46.7285 45.5905 46.7285 45.3448V36.9774C46.7285 36.718 46.6466 36.5132 46.5238 36.3221H48.2846C48.1754 36.4996 48.0935 36.7043 48.0935 36.9364V40.6356H52.9802V36.9774C52.9802 36.718 52.8983 36.5132 52.7755 36.3221H54.5363C54.4271 36.4996 54.3452 36.7043 54.3452 36.9364V45.3721C54.3452 45.6178 54.4271 45.8226 54.5363 46H52.7755C52.8983 45.8226 52.9802 45.5905 52.9802 45.3448V41.1406H48.0935V45.3721C48.0935 45.6178 48.1754 45.8226 48.2846 46ZM67.0029 45.8498L65.4605 42.6011H61.4474L59.8776 46H59.004L59.2634 45.8089C59.3453 45.7543 59.4135 45.6451 59.4545 45.5632L63.1536 37.5233L62.6759 36.7043C62.6076 36.5815 62.4984 36.4313 62.3892 36.3358L62.3756 36.3221H63.4949C63.686 36.3221 63.8907 36.445 63.9726 36.6224L68.3816 45.5632C68.4225 45.6451 68.5044 45.7543 68.5727 45.8089L68.8047 46H67.235C67.1394 46 67.0439 45.9317 67.0029 45.8498ZM61.6794 42.1097H65.2284L63.4266 38.315L61.6794 42.1097ZM71.8306 46.9419L71.7897 46.6006C72.7725 46.6006 73.4004 45.8226 73.4004 43.8843V36.9774C73.4004 36.6907 73.3185 36.5132 73.1956 36.3221H74.9565C74.8336 36.5132 74.7381 36.7043 74.7381 37.0046V43.8843C74.7381 45.5768 73.6324 46.9419 71.8306 46.9419ZM78.8289 46.9419L78.788 46.6006C79.7708 46.6006 80.3987 45.8226 80.3987 43.8843V36.9774C80.3987 36.6907 80.3168 36.5132 80.1939 36.3221H81.9548C81.8319 36.5132 81.7364 36.7043 81.7364 37.0046V43.8843C81.7364 45.5768 80.6307 46.9419 78.8289 46.9419ZM90.6457 36.1037C91.9015 36.1174 93.1982 36.8272 93.1982 38.2468C93.1982 39.6255 91.9424 40.1851 90.6457 40.772L90.127 41.0041C90.8504 41.8231 91.7104 42.7786 92.7751 43.6931C93.6896 42.3145 93.8671 41.0723 93.8671 41.0723H95.041C94.8499 42.3008 94.3585 43.4201 93.5804 44.3211L95.7917 46H93.5122L92.6386 45.1946C91.7923 45.8771 90.8914 46.0819 89.9086 46.0819C87.4925 46.0819 86.2367 44.867 86.2367 43.6249C86.2367 42.41 87.4243 41.7958 88.721 41.1952C88.0385 40.2261 87.6017 39.2296 87.6017 38.356C87.6017 36.3904 89.813 36.1037 90.6457 36.1037ZM89.854 40.6628C90.9869 40.0895 91.9288 39.3797 91.9288 38.083C91.9288 37.1685 91.451 36.4177 90.5092 36.4177C89.4991 36.4177 88.9804 37.264 88.9804 38.315C88.9667 39.1887 89.3216 39.9667 89.854 40.6628ZM89.035 41.6047C88.2979 42.0961 87.7519 42.7376 87.7519 43.7614C87.7519 44.1026 87.8065 45.6588 89.7721 45.6588C90.7003 45.6588 91.3555 45.3038 91.9697 44.6896C90.8914 43.7204 89.7857 42.6558 89.035 41.6047ZM103.852 46.2048C101.887 46.2048 100.099 44.9489 100.099 42.6694V36.95C100.099 36.7043 100.017 36.4996 99.9075 36.3221H101.668C101.546 36.5132 101.436 36.7453 101.436 37.032V42.6694C101.436 44.1436 102.187 45.7952 103.866 45.7952C105.695 45.7952 106.623 44.4303 106.623 42.6694V36.8545C106.623 36.6361 106.582 36.4723 106.487 36.3221H107.265C107.169 36.4586 107.128 36.6361 107.128 36.8545V42.6694C107.128 44.9489 105.818 46.2048 103.852 46.2048ZM113.871 46H112.451C112.642 45.7679 112.792 45.4677 112.833 45.0035L113.448 37.4551L112.806 36.3221H113.816C114.116 36.3221 114.417 36.4996 114.567 36.7726L118.525 43.8979L121.747 36.8409C121.883 36.5269 122.211 36.3221 122.552 36.3221H122.989L123.671 45.3175C123.699 45.6178 123.767 45.8089 123.89 46H122.129C122.252 45.8089 122.347 45.6315 122.347 45.3994V45.3175L121.788 37.8919L118.334 45.5905L118.293 45.5632C117.993 45.3584 117.679 45.0035 117.502 44.6896L113.966 38.3969L113.475 44.9762V45.0855C113.475 45.495 113.68 45.7679 113.871 46ZM130.971 46H129.21C129.333 45.8226 129.415 45.6178 129.415 45.3448V36.9774C129.415 36.6907 129.333 36.5132 129.21 36.3221H132.787C134.343 36.3221 136.022 37.2503 136.022 38.9976C136.022 40.499 134.793 41.1542 133.114 41.3726L136.759 46H135.667C135.339 46 134.984 45.8362 134.779 45.5768L131.217 41.1269H132.268C133.114 41.1269 134.643 40.5809 134.643 38.9293C134.643 37.1002 133.36 36.8272 132.541 36.8272H130.753V45.3175C130.753 45.6178 130.848 45.8089 130.971 46ZM148.663 45.8498L147.121 42.6011H143.107L141.538 46H140.664L140.923 45.8089C141.005 45.7543 141.074 45.6451 141.115 45.5632L144.814 37.5233L144.336 36.7043C144.268 36.5815 144.158 36.4313 144.049 36.3358L144.036 36.3221H145.155C145.346 36.3221 145.551 36.445 145.633 36.6224L150.042 45.5632C150.083 45.6451 150.164 45.7543 150.233 45.8089L150.465 46H148.895C148.799 46 148.704 45.9317 148.663 45.8498ZM143.339 42.1097H146.888L145.087 38.315L143.339 42.1097ZM156.685 46H154.924C155.047 45.8226 155.129 45.5905 155.129 45.3448V36.9774C155.129 36.718 155.047 36.5132 154.924 36.3221H156.685C156.576 36.4996 156.494 36.7043 156.494 36.9364V40.6356H161.38V36.9774C161.38 36.718 161.298 36.5132 161.176 36.3221H162.936C162.827 36.4996 162.745 36.7043 162.745 36.9364V45.3721C162.745 45.6178 162.827 45.8226 162.936 46H161.176C161.298 45.8226 161.38 45.5905 161.38 45.3448V41.1406H156.494V45.3721C156.494 45.6178 156.576 45.8226 156.685 46ZM181.668 37.5916L181.355 38.9839L181.109 38.5471C180.563 37.5916 179.921 36.4723 178.27 36.4723C177.355 36.4723 176.304 37.0456 176.304 38.315C176.304 39.4753 177.191 39.8575 178.133 40.267L178.57 40.4581C180.74 41.4546 181.682 41.9869 181.682 43.2836C181.682 44.8398 180.331 46.2048 178.16 46.2048C176.263 46.2048 174.98 45.1673 174.625 44.048L175.13 42.8469C175.403 44.0754 176.522 45.8089 178.27 45.8089C179.02 45.8089 180.44 45.1946 180.44 44.0754C180.44 43.3792 180.235 42.5875 178.27 41.7821C175.799 40.772 175.13 40.1578 175.13 39.0112C175.13 37.4824 176.318 36.1174 178.27 36.1174C179.962 36.1174 180.931 36.7589 181.668 37.5916ZM192.067 45.0718L192.667 46H186.73C186.866 45.8089 186.934 45.5768 186.934 45.3448V36.9774C186.934 36.718 186.852 36.5132 186.73 36.3221H191.985L191.384 37.2503C189.869 36.8272 189.214 36.8272 188.272 36.8272V40.1851H191.098L190.661 41.0451C189.432 40.6901 189.214 40.6901 188.272 40.6901V45.2492C188.272 45.3311 188.286 45.413 188.299 45.495C189.473 45.495 190.565 45.495 192.067 45.0718ZM199.621 46H197.86C197.983 45.8226 198.065 45.6178 198.065 45.3448V36.9774C198.065 36.6907 197.983 36.5132 197.86 36.3221H201.436C202.993 36.3221 204.671 37.2503 204.671 38.9976C204.671 40.499 203.443 41.1542 201.764 41.3726L205.409 46H204.317C203.989 46 203.634 45.8362 203.429 45.5768L199.867 41.1269H200.918C201.764 41.1269 203.293 40.5809 203.293 38.9293C203.293 37.1002 202.01 36.8272 201.191 36.8272H199.403V45.3175C199.403 45.6178 199.498 45.8089 199.621 46ZM213.759 45.2629L216.516 38.083C216.694 37.6325 216.789 37.264 216.789 36.9364C216.789 36.7043 216.735 36.4996 216.626 36.3221H217.977C217.704 36.5132 217.486 36.9227 217.185 37.7554L214.019 46H212.694L211.493 42.7786L209.255 36.8545C209.2 36.718 209.132 36.6224 209.064 36.5269L209.036 36.4996C208.995 36.445 208.954 36.3904 208.913 36.3221H211.125C210.975 36.5542 210.906 36.8135 210.906 37.1138C210.906 37.3732 210.961 37.6735 211.084 37.9875L213.759 45.2629ZM224.188 46H222.427C222.55 45.8226 222.632 45.5905 222.632 45.3448V36.9774C222.632 36.718 222.55 36.5132 222.427 36.3221H224.188C224.079 36.4996 223.997 36.7043 223.997 36.9364V45.3721C223.997 45.6178 224.079 45.8226 224.188 46ZM229.243 41.1542C229.243 37.9192 231.645 36.1174 234.034 36.1174C235.263 36.1174 236.491 36.5952 237.392 37.4824V38.9429C236.764 37.4414 235.508 36.6361 234.252 36.6361C232.464 36.6361 230.813 38.2604 230.813 41.1542C230.813 44.048 232.464 45.686 234.252 45.686C235.372 45.686 236.491 45.0308 237.174 43.8296V45.0308C236.3 45.7952 235.167 46.2048 234.034 46.2048C231.645 46.2048 229.243 44.3893 229.243 41.1542ZM247.8 45.0718L248.4 46H242.463C242.599 45.8089 242.667 45.5768 242.667 45.3448V36.9774C242.667 36.718 242.585 36.5132 242.463 36.3221H247.718L247.117 37.2503C245.602 36.8272 244.947 36.8272 244.005 36.8272V40.1851H246.831L246.394 41.0451C245.165 40.6901 244.947 40.6901 244.005 40.6901V45.2492C244.005 45.3311 244.019 45.413 244.032 45.495C245.206 45.495 246.298 45.495 247.8 45.0718ZM260.036 37.5916L259.722 38.9839L259.476 38.5471C258.93 37.5916 258.289 36.4723 256.637 36.4723C255.723 36.4723 254.672 37.0456 254.672 38.315C254.672 39.4753 255.559 39.8575 256.501 40.267L256.937 40.4581C259.108 41.4546 260.05 41.9869 260.05 43.2836C260.05 44.8398 258.698 46.2048 256.528 46.2048C254.631 46.2048 253.347 45.1673 252.993 44.048L253.498 42.8469C253.771 44.0754 254.89 45.8089 256.637 45.8089C257.388 45.8089 258.807 45.1946 258.807 44.0754C258.807 43.3792 258.603 42.5875 256.637 41.7821C254.166 40.772 253.498 40.1578 253.498 39.0112C253.498 37.4824 254.685 36.1174 256.637 36.1174C258.33 36.1174 259.299 36.7589 260.036 37.5916Z" fill="#070401"/>
<defs>
<filter id="filter0_f_638_2090" x="19.5833" y="4.92363" width="25.0177" height="36.0277" filterUnits="userSpaceOnUse" color-interpolation-filters="sRGB">
<feFlood flood-opacity="0" result="BackgroundImageFix"/>
<feBlend mode="normal" in="SourceGraphic" in2="BackgroundImageFix" result="shape"/>
<feGaussianBlur stdDeviation="2.4" result="effect1_foregroundBlur_638_2090"/>
</filter>
<clipPath id="clip0_638_2090">
<rect width="35" height="40" fill="white" transform="translate(2.5 10)"/>
</clipPath>
</defs>
</svg>
