<svg width="32" height="32" viewBox="0 0 32 32" fill="none" xmlns="http://www.w3.org/2000/svg">
<path d="M27.2928 2.6662H4.70609C4.4522 2.66268 4.2001 2.7092 3.96418 2.80311C3.72827 2.89703 3.51316 3.0365 3.33116 3.21355C3.14915 3.39061 3.0038 3.60178 2.90342 3.83501C2.80303 4.06825 2.74957 4.31897 2.74609 4.57287V27.4262C2.74957 27.6801 2.80303 27.9308 2.90342 28.1641C3.0038 28.3973 3.14915 28.6085 3.33116 28.7855C3.51316 28.9626 3.72827 29.102 3.96418 29.196C4.2001 29.2899 4.4522 29.3364 4.70609 29.3329H27.2928C27.5467 29.3364 27.7988 29.2899 28.0347 29.196C28.2706 29.102 28.4857 28.9626 28.6677 28.7855C28.8497 28.6085 28.9951 28.3973 29.0954 28.1641C29.1958 27.9308 29.2493 27.6801 29.2528 27.4262V4.57287C29.2493 4.31897 29.1958 4.06825 29.0954 3.83501C28.9951 3.60178 28.8497 3.39061 28.6677 3.21355C28.4857 3.0365 28.2706 2.89703 28.0347 2.80311C27.7988 2.7092 27.5467 2.66268 27.2928 2.6662ZM10.7861 24.9862H6.78609V12.9862H10.7861V24.9862ZM8.78609 11.3062C8.23444 11.3062 7.70539 11.0871 7.31531 10.697C6.92524 10.3069 6.70609 9.77785 6.70609 9.2262C6.70609 8.67455 6.92524 8.1455 7.31531 7.75542C7.70539 7.36534 8.23444 7.1462 8.78609 7.1462C9.07902 7.11298 9.37566 7.14201 9.65659 7.23138C9.93753 7.32075 10.1964 7.46845 10.4163 7.66482C10.6362 7.86118 10.8121 8.10177 10.9326 8.37084C11.053 8.63992 11.1153 8.9314 11.1153 9.2262C11.1153 9.52101 11.053 9.81249 10.9326 10.0816C10.8121 10.3506 10.6362 10.5912 10.4163 10.7876C10.1964 10.9839 9.93753 11.1317 9.65659 11.221C9.37566 11.3104 9.07902 11.3394 8.78609 11.3062ZM25.2128 24.9862H21.2128V18.5462C21.2128 16.9329 20.6394 15.8795 19.1861 15.8795C18.7363 15.8828 18.2983 16.0239 17.9312 16.2838C17.5641 16.5436 17.2854 16.9098 17.1328 17.3329C17.0284 17.6463 16.9832 17.9763 16.9994 18.3062V24.9729H12.9994V12.9729H16.9994V14.6662C17.3628 14.0357 17.8913 13.5162 18.528 13.1638C19.1647 12.8114 19.8855 12.6393 20.6128 12.6662C23.2794 12.6662 25.2128 14.3862 25.2128 18.0795V24.9862Z" fill="#1E1000"/>
</svg>
