<svg width="28" height="28" viewBox="0 0 28 28" fill="none" xmlns="http://www.w3.org/2000/svg">
<path d="M16.9167 17.6458C16.9167 18.0487 16.5904 18.375 16.1875 18.375H11.8125C11.4097 18.375 11.0834 18.0487 11.0834 17.6458V15.4583H2.33337V22.0208C2.33337 23.1875 3.35421 24.2083 4.52087 24.2083H23.4792C24.6459 24.2083 25.6667 23.1875 25.6667 22.0208V15.4583H16.9167V17.6458ZM23.4792 8.16663H19.8334V5.97913C19.8334 4.81246 18.8125 3.79163 17.6459 3.79163H10.3542C9.18754 3.79163 8.16671 4.81246 8.16671 5.97913V8.16663H4.52087C3.35421 8.16663 2.33337 9.18746 2.33337 10.3541V14H25.6667V10.3541C25.6667 9.18746 24.6459 8.16663 23.4792 8.16663ZM16.9167 8.16663H11.0834V6.70829H16.9167V8.16663Z" fill="#1E1000"/>
</svg>
