<svg width="22" height="22" viewBox="0 0 22 22" fill="none" xmlns="http://www.w3.org/2000/svg">
<path d="M19.3462 21.5087L12.2025 14.3637C9.02456 16.6231 4.64552 16.0704 2.12857 13.0924C-0.388389 10.1144 -0.203576 5.70448 2.55373 2.94749C5.3103 0.189302 9.72063 0.00368953 12.6992 2.52051C15.6778 5.03734 16.2307 9.4168 13.9712 12.595L21.115 19.74L19.3475 21.5075L19.3462 21.5087ZM7.85623 3.24998C5.48585 3.24944 3.44084 4.91334 2.95932 7.23429C2.4778 9.55524 3.69211 11.8953 5.86707 12.8378C8.04203 13.7802 10.5798 13.066 11.944 11.1276C13.3082 9.18909 13.1238 6.55914 11.5025 4.82999L12.2587 5.57999L11.4062 4.72999L11.3912 4.71499C10.456 3.77396 9.18297 3.2464 7.85623 3.24998Z" fill="#FFFCF8"/>
</svg>
