<svg width="28" height="28" viewBox="0 0 28 28" fill="none" xmlns="http://www.w3.org/2000/svg">
<path d="M21.5833 21H6.41658C6.09575 21 5.83325 21.2625 5.83325 21.5833V22.75C5.83325 23.0708 6.09575 23.3333 6.41658 23.3333H21.5833C21.9041 23.3333 22.1666 23.0708 22.1666 22.75V21.5833C22.1666 21.2625 21.9041 21 21.5833 21ZM23.9166 9.33329C22.9504 9.33329 22.1666 10.1171 22.1666 11.0833C22.1666 11.3421 22.2249 11.5828 22.327 11.8052L19.6874 13.3875C19.126 13.7229 18.4004 13.5333 18.076 12.9645L15.1046 7.76558C15.4947 7.44475 15.7499 6.9635 15.7499 6.41663C15.7499 5.45048 14.9661 4.66663 13.9999 4.66663C13.0338 4.66663 12.2499 5.45048 12.2499 6.41663C12.2499 6.9635 12.5051 7.44475 12.8952 7.76558L9.92388 12.9645C9.5994 13.5333 8.87023 13.7229 8.31242 13.3875L5.67648 11.8052C5.77492 11.5864 5.8369 11.3421 5.8369 11.0833C5.8369 10.1171 5.05304 9.33329 4.0869 9.33329C3.12075 9.33329 2.33325 10.1171 2.33325 11.0833C2.33325 12.0494 3.11711 12.8333 4.08325 12.8333C4.17804 12.8333 4.27284 12.8187 4.36398 12.8041L6.99992 19.8333H20.9999L23.6359 12.8041C23.727 12.8187 23.8218 12.8333 23.9166 12.8333C24.8827 12.8333 25.6666 12.0494 25.6666 11.0833C25.6666 10.1171 24.8827 9.33329 23.9166 9.33329Z" fill="#1E1000"/>
</svg>
