<svg width="36" height="36" viewBox="0 0 36 36" fill="none" xmlns="http://www.w3.org/2000/svg">
<path d="M17.0125 3.43534L4.82262 8.00655C3.7267 8.41679 3 9.47168 3 10.6438V23.8358C3 24.9024 3.60363 25.8753 4.55304 26.35L16.7429 32.4449C17.5341 32.8434 18.4659 32.8434 19.2571 32.4449L31.447 26.35C32.4022 25.8753 33 24.8966 33 23.8358V10.6438C33 9.47168 32.2733 8.42265 31.1774 8.01241L18.9875 3.4412C18.3546 3.19506 17.6513 3.19506 17.0125 3.43534ZM18.0029 7.07473L29.2551 11.2943V11.3588L18.0029 15.93L6.75073 11.3588V11.2943L18.0029 7.07473ZM19.8783 27.9382V19.2119L29.2551 15.4025V23.2498L19.8783 27.9382Z" fill="#1E1000"/>
</svg>
