<svg width="28" height="28" viewBox="0 0 28 28" fill="none" xmlns="http://www.w3.org/2000/svg">
<path d="M7.92735 12.1342L3.11719 19.2384C2.97682 19.4663 3.12174 19.7625 3.38743 19.7917L12.8783 20.7975L7.92735 12.1342ZM3.40019 16.7083L6.83133 11.1325L3.33867 9.03706C3.21699 8.96415 3.0625 9.05165 3.0625 9.19338V16.613C3.0625 16.7967 3.30358 16.865 3.40019 16.7083ZM3.89419 21.6378L12.7535 25.6327C12.995 25.7443 13.2707 25.5675 13.2707 25.3018V22.3091L3.99445 21.2928C3.79166 21.27 3.71054 21.5476 3.89419 21.6378ZM7.59558 9.89018L11.2382 3.37607C11.436 3.05433 11.0746 2.68109 10.7469 2.86839L3.87414 7.36228C3.76158 7.43611 3.76523 7.60199 3.88007 7.67126L7.59558 9.89018ZM13.9999 10.3541H18.9768L14.621 2.68064C14.4784 2.44913 14.2391 2.33337 13.9999 2.33337C13.7606 2.33337 13.5213 2.44913 13.3787 2.68064L9.0229 10.3541H13.9999ZM24.661 9.03706L21.1684 11.1329L24.5995 16.7087C24.6957 16.8655 24.9372 16.7971 24.9372 16.613V9.19338C24.9372 9.05165 24.7827 8.96415 24.661 9.03706ZM20.4041 9.89018L24.1196 7.6708C24.2349 7.60153 24.2381 7.43565 24.1256 7.36182L17.2528 2.86839C16.9251 2.68109 16.5638 3.05433 16.7615 3.37607L20.4041 9.89018ZM24.0053 21.2928L14.729 22.3086V25.3014C14.729 25.5675 15.0047 25.7439 15.2463 25.6322L24.1055 21.6374C24.2892 21.5476 24.2081 21.27 24.0053 21.2928ZM20.0724 12.1342L15.1218 20.7975L24.6127 19.7917C24.8784 19.7621 25.0233 19.4663 24.883 19.2384L20.0724 12.1342ZM13.9999 11.8124H9.42303L13.9999 19.8218L18.5767 11.8124H13.9999Z" fill="#1E1000"/>
</svg>
