<svg width="16" height="16" viewBox="0 0 16 16" fill="none" xmlns="http://www.w3.org/2000/svg">
<path d="M14.414 6.30208C14.5155 6.22135 14.6666 6.29688 14.6666 6.42448V11.75C14.6666 12.4401 14.1067 13 13.4166 13H2.58325C1.89315 13 1.33325 12.4401 1.33325 11.75V6.42708C1.33325 6.29688 1.48169 6.22396 1.58586 6.30469C2.16919 6.75781 2.94263 7.33333 5.59888 9.26302C6.14836 9.66406 7.07544 10.5078 7.99992 10.5026C8.92961 10.5104 9.87492 9.64844 10.4036 9.26302C13.0598 7.33333 13.8306 6.75521 14.414 6.30208ZM7.99992 9.66667C8.60409 9.67708 9.47388 8.90625 9.91138 8.58854C13.3671 6.08073 13.6301 5.86198 14.427 5.23698C14.578 5.11979 14.6666 4.9375 14.6666 4.74479V4.25C14.6666 3.5599 14.1067 3 13.4166 3H2.58325C1.89315 3 1.33325 3.5599 1.33325 4.25V4.74479C1.33325 4.9375 1.42179 5.11719 1.57284 5.23698C2.36971 5.85937 2.63273 6.08073 6.08846 8.58854C6.52596 8.90625 7.39575 9.67708 7.99992 9.66667Z" fill="#F8A645"/>
</svg>
