<svg width="24" height="22" viewBox="0 0 24 22" fill="none" xmlns="http://www.w3.org/2000/svg">
<path d="M7 18.5C6.40666 18.5 5.82664 18.3241 5.33329 17.9944C4.83994 17.6648 4.45543 17.1962 4.22836 16.6481C4.0013 16.0999 3.94189 15.4967 4.05765 14.9147C4.1734 14.3328 4.45912 13.7982 4.87868 13.3787C5.29824 12.9591 5.83279 12.6734 6.41473 12.5576C6.99667 12.4419 7.59987 12.5013 8.14805 12.7284C8.69623 12.9554 9.16477 13.3399 9.49441 13.8333C9.82405 14.3266 10 14.9067 10 15.5C10 16.2957 9.68393 17.0587 9.12132 17.6213C8.55871 18.1839 7.79565 18.5 7 18.5ZM7 14.5C6.80222 14.5 6.60888 14.5586 6.44443 14.6685C6.27998 14.7784 6.15181 14.9346 6.07612 15.1173C6.00043 15.3 5.98063 15.5011 6.01922 15.6951C6.0578 15.8891 6.15304 16.0673 6.29289 16.2071C6.43275 16.347 6.61093 16.4422 6.80491 16.4808C6.99889 16.5194 7.19996 16.4996 7.38268 16.4239C7.56541 16.3482 7.72159 16.22 7.83147 16.0556C7.94135 15.8911 8 15.6978 8 15.5C8 15.2348 7.89464 14.9804 7.70711 14.7929C7.51957 14.6054 7.26522 14.5 7 14.5Z" fill="#B3B3B3"/>
<path d="M18 18.5C17.4067 18.5 16.8266 18.3241 16.3333 17.9944C15.8399 17.6648 15.4554 17.1962 15.2284 16.6481C15.0013 16.0999 14.9419 15.4967 15.0576 14.9147C15.1734 14.3328 15.4591 13.7982 15.8787 13.3787C16.2982 12.9591 16.8328 12.6734 17.4147 12.5576C17.9967 12.4419 18.5999 12.5013 19.1481 12.7284C19.6962 12.9554 20.1648 13.3399 20.4944 13.8333C20.8241 14.3266 21 14.9067 21 15.5C21 16.2957 20.6839 17.0587 20.1213 17.6213C19.5587 18.1839 18.7957 18.5 18 18.5ZM18 14.5C17.8022 14.5 17.6089 14.5586 17.4444 14.6685C17.28 14.7784 17.1518 14.9346 17.0761 15.1173C17.0004 15.3 16.9806 15.5011 17.0192 15.6951C17.0578 15.8891 17.153 16.0673 17.2929 16.2071C17.4327 16.347 17.6109 16.4422 17.8049 16.4808C17.9989 16.5194 18.2 16.4996 18.3827 16.4239C18.5654 16.3482 18.7216 16.22 18.8315 16.0556C18.9414 15.8911 19 15.6978 19 15.5C19 15.2348 18.8946 14.9804 18.7071 14.7929C18.5196 14.6054 18.2652 14.5 18 14.5Z" fill="#B3B3B3"/>
<path d="M16 16.5H9C8.73478 16.5 8.48043 16.3946 8.29289 16.2071C8.10536 16.0196 8 15.7652 8 15.5C8 15.2348 8.10536 14.9804 8.29289 14.7929C8.48043 14.6054 8.73478 14.5 9 14.5H16C16.2652 14.5 16.5196 14.6054 16.7071 14.7929C16.8946 14.9804 17 15.2348 17 15.5C17 15.7652 16.8946 16.0196 16.7071 16.2071C16.5196 16.3946 16.2652 16.5 16 16.5Z" fill="#B3B3B3"/>
<path d="M5 16.5H4C3.46957 16.5 2.96086 16.2893 2.58579 15.9142C2.21071 15.5391 2 15.0304 2 14.5V6.5C2 5.70435 2.31607 4.94129 2.87868 4.37868C3.44129 3.81607 4.20435 3.5 5 3.5H15C16.8565 3.5 18.637 4.2375 19.9497 5.55025C21.2625 6.86301 22 8.64348 22 10.5V11.5C22 11.7652 21.8946 12.0196 21.7071 12.2071C21.5196 12.3946 21.2652 12.5 21 12.5C20.7348 12.5 20.4804 12.3946 20.2929 12.2071C20.1054 12.0196 20 11.7652 20 11.5V10.5C20 9.17392 19.4732 7.90215 18.5355 6.96447C17.5979 6.02678 16.3261 5.5 15 5.5H5C4.73478 5.5 4.48043 5.60536 4.29289 5.79289C4.10536 5.98043 4 6.23478 4 6.5V14.5H5C5.26522 14.5 5.51957 14.6054 5.70711 14.7929C5.89464 14.9804 6 15.2348 6 15.5C6 15.7652 5.89464 16.0196 5.70711 16.2071C5.51957 16.3946 5.26522 16.5 5 16.5Z" fill="#B3B3B3"/>
<path d="M20 10.5H14C13.7348 10.5 13.4804 10.3946 13.2929 10.2071C13.1054 10.0196 13 9.76522 13 9.5C13 9.23478 13.1054 8.98043 13.2929 8.79289C13.4804 8.60536 13.7348 8.5 14 8.5H20C20.2652 8.5 20.5196 8.60536 20.7071 8.79289C20.8946 8.98043 21 9.23478 21 9.5C21 9.76522 20.8946 10.0196 20.7071 10.2071C20.5196 10.3946 20.2652 10.5 20 10.5Z" fill="#B3B3B3"/>
<path d="M20.91 9.50001C20.7311 8.44708 20.2744 7.46098 19.5871 6.64354C18.8997 5.8261 18.0066 5.20694 17 4.85001V9.50001H20.91Z" fill="#B3B3B3"/>
</svg>
