<svg width="26" height="24" viewBox="0 0 26 24" fill="none" xmlns="http://www.w3.org/2000/svg">
<path d="M21.25 19.3333H4.75C3.925 19.3333 3.25 18.6733 3.25 17.8667V8.33334C3.25 7.52667 3.925 6.86667 4.75 6.86667H21.25C22.075 6.86667 22.75 7.52667 22.75 8.33334V17.8667C22.75 18.6733 22.075 19.3333 21.25 19.3333Z" stroke="#B3B3B3" stroke-width="2" stroke-miterlimit="10" stroke-linecap="round" stroke-linejoin="round"/>
<path d="M7.75 6.86667V19.3333" stroke="#B3B3B3" stroke-width="2" stroke-miterlimit="10" stroke-linecap="round" stroke-linejoin="round"/>
<path d="M18.25 6.86667V19.3333" stroke="#B3B3B3" stroke-width="2" stroke-miterlimit="10" stroke-linecap="round" stroke-linejoin="round"/>
<path d="M16.75 6.86665H9.25V5.39999C9.25 4.59332 9.925 3.93332 10.75 3.93332H15.25C16.075 3.93332 16.75 4.59332 16.75 5.39999V6.86665Z" stroke="#B3B3B3" stroke-width="2" stroke-miterlimit="10" stroke-linecap="round" stroke-linejoin="round"/>
<path d="M4.75 20.0667V19.3333" stroke="#B3B3B3" stroke-width="2" stroke-miterlimit="10" stroke-linecap="round" stroke-linejoin="round"/>
<path d="M21.25 20.0667V19.3333" stroke="#B3B3B3" stroke-width="2" stroke-miterlimit="10" stroke-linecap="round" stroke-linejoin="round"/>
</svg>
