<svg width="31" height="30" viewBox="0 0 31 30" fill="none" xmlns="http://www.w3.org/2000/svg">
<path d="M15.536 2.909C22.2188 2.909 27.638 8.41438 27.638 15.2051C27.638 21.9946 22.2188 27.5 15.536 27.5C8.85446 27.5 3.43408 21.9935 3.43408 15.2051C3.43293 8.41438 8.85331 2.909 15.536 2.909ZM25.4062 10.6347H21.6479C21.904 11.8258 22.0625 13.1077 22.105 14.4481H26.355C26.2654 13.095 25.9334 11.8097 25.4062 10.6347ZM20.9024 10.6347H16.386V14.4481H21.4182C21.3688 13.095 21.1896 11.8097 20.9024 10.6347ZM14.8595 10.6347H10.1685C9.88134 11.8097 9.701 13.0962 9.65276 14.4481H14.8595V10.6347ZM9.42533 10.6347H5.66587C5.1375 11.8097 4.80669 13.0962 4.71595 14.4481H8.96588C9.00953 13.1077 9.16919 11.8247 9.42533 10.6347ZM6.50437 9.107H9.82161C10.3638 7.33696 11.1345 5.84374 12.058 4.76633C9.76647 5.55429 7.81955 7.09805 6.50437 9.107ZM10.6256 9.107H14.8618V4.25978C13.0929 4.63653 11.5641 6.47319 10.6256 9.107ZM16.3872 9.107H20.4476C19.5402 6.55934 18.0791 4.75829 16.3872 4.30114V9.107ZM21.2516 9.107H24.5677C23.2514 7.09805 21.3033 5.55429 19.0129 4.76633C19.9387 5.84374 20.7083 7.33811 21.2516 9.107ZM26.355 15.9747H22.105C22.0602 17.3174 21.9006 18.6016 21.6433 19.7938H25.3982C25.9277 18.6176 26.2608 17.33 26.355 15.9747ZM21.4182 15.9747H16.386V19.7938H20.8978C21.1873 18.6176 21.3688 17.33 21.4182 15.9747ZM14.8595 15.9747H9.65276C9.7033 17.33 9.88478 18.6176 10.1731 19.7938H14.8595V15.9747ZM8.96703 15.9747H4.7171C4.80899 17.33 5.14324 18.6176 5.67506 19.7938H9.42878C9.17148 18.6027 9.01068 17.3174 8.96703 15.9747ZM16.3872 21.3204V26.1067C18.0757 25.6507 19.5321 23.8577 20.4407 21.3204H16.3872ZM14.8595 26.1492V21.3204H10.6325C11.571 23.945 13.0975 25.7736 14.8595 26.1492ZM24.5562 21.3204H21.2447C20.7026 23.0812 19.9341 24.5687 19.0141 25.6427C21.2987 24.857 23.2387 23.3201 24.5562 21.3204ZM9.8262 21.3204H6.51585C7.83218 23.319 9.77452 24.857 12.0568 25.6427C11.1356 24.5687 10.3684 23.0812 9.8262 21.3204Z" fill="#B3B3B3"/>
</svg>
