<svg width="20" height="18" viewBox="0 0 20 18" fill="none" xmlns="http://www.w3.org/2000/svg">
<path d="M15.1972 5.86378C15.1972 2.30203 12.87 0 9.26523 0C5.66044 0 3.33325 2.30203 3.33325 5.86378C3.33325 8.83266 8.00567 14.7926 8.53963 15.4595L9.19218 16.283C6.4588 16.29 4.2545 16.6711 4.2545 17.1411C4.2545 17.6152 6.49919 17.9997 9.2681 17.9997C12.037 17.9997 14.2817 17.6152 14.2817 17.1411C14.2817 16.6708 12.0748 16.2894 9.33885 16.283L9.99541 15.4595C10.5245 14.7884 15.1972 8.82844 15.1972 5.86378ZM7.34424 5.85984C7.34424 4.84622 8.20419 4.02441 9.26523 4.02441C10.3263 4.02441 11.1862 4.84622 11.1862 5.85984C11.1862 6.87347 10.3263 7.69528 9.26523 7.69528C8.20419 7.69528 7.34424 6.87347 7.34424 5.85984Z" fill="#F8A645"/>
</svg>
