<svg width="16" height="16" viewBox="0 0 16 16" fill="none" xmlns="http://www.w3.org/2000/svg">
<path d="M14.2863 10.7553L11.3696 9.50528C11.245 9.45218 11.1065 9.44099 10.975 9.47339C10.8435 9.5058 10.7261 9.58005 10.6404 9.68497L9.34876 11.2631C7.32157 10.3073 5.69015 8.6759 4.73435 6.64872L6.31251 5.35703C6.41763 5.27153 6.49204 5.1541 6.52446 5.02253C6.55688 4.89096 6.54556 4.75241 6.4922 4.62785L5.24217 1.71113C5.18361 1.57686 5.08003 1.46723 4.94929 1.40115C4.81856 1.33507 4.66886 1.31668 4.52602 1.34915L1.81764 1.97416C1.67992 2.00596 1.55704 2.0835 1.46907 2.19413C1.3811 2.30476 1.33322 2.44194 1.33325 2.58328C1.33325 9.26308 6.74741 14.6668 13.4168 14.6668C13.5582 14.6669 13.6954 14.6191 13.8061 14.5311C13.9168 14.4431 13.9944 14.3202 14.0262 14.1824L14.6512 11.4741C14.6835 11.3305 14.6647 11.1802 14.5981 11.049C14.5315 10.9179 14.4213 10.814 14.2863 10.7553Z" fill="#F8A645"/>
</svg>
